# xmcd
#
# Track frame offsets:
#	150
#	21706
#	41359
#	61900
#	80030
#	131545
#	148456
#	174370
#	193411
#
# Disc length: 3002 seconds
# Revision: 0
# Processed by: cddbd v1.5.2PL0 Copyright (c) Steve Scherf et al.
# Submitted via: dBpowerAMP V12.0
#
DISCID=880bb809
DTITLE=The Blues Band - Live At Town And Country Club
DYEAR=2017
DGENRE=Blues
TTITLE0=Big Fine Girl
TTITLE1=Might As Well Be Me
TTITLE2=So Lonely
TTITLE3=Someday Baby
TTITLE4=Treat Her Right
TTITLE5=I Can't Be Satisfied
TTITLE6=The Bad boy
TTITLE7=So Bad
TTITLE8=Talk To Me Bady
EXTD=
EXTT0=
EXTT1=
EXTT2=
EXTT3=
EXTT4=
EXTT5=
EXTT6=
EXTT7=
EXTT8=
PLAYORDER=
